<svg width="28" height="28" viewBox="0 0 36 36" fill="none" xmlns="http://www.w3.org/2000/svg">
<g filter="url(#filter0_d)">
<path d="M16.8358 19.7498C16.8886 19.8026 16.9459 19.8482 17.0064 19.8868C17.0022 19.9239 17 19.9616 17 19.9998V25.9998C17 26.5521 17.4477 26.9998 18 26.9998C18.5523 26.9998 19 26.5521 19 25.9998V19.9998C19 19.9524 18.9967 19.9058 18.9904 19.8602C19.0363 19.8277 19.0802 19.7909 19.1214 19.7498L21.1391 17.732C21.5296 17.3415 21.5296 16.7083 21.1391 16.3178C20.7486 15.9273 20.1154 15.9273 19.7249 16.3178L17.9785 18.0641L16.2323 16.3178C15.8418 15.9273 15.2086 15.9273 14.8181 16.3178C14.4275 16.7083 14.4275 17.3415 14.8181 17.732L16.8358 19.7498Z" fill="#FFE500"/>
</g>
<path d="M15 33C15 32.4477 15.4477 32 16 32H20C20.5523 32 21 32.4477 21 33C21 33.5523 20.5523 34 20 34H16C15.4477 34 15 33.5523 15 33Z" fill="#FF760C"/>
<path d="M13 30C13 29.4477 13.4477 29 14 29H22C22.5523 29 23 29.4477 23 30C23 30.5523 22.5523 31 22 31H14C13.4477 31 13 30.5523 13 30Z" fill="#FF760C"/>
<path fill-rule="evenodd" clip-rule="evenodd" d="M13.8276 9.21035C12.6561 12.4286 12 16.4375 12 19.5C12 23.1327 12.6891 24.5728 13.5126 25.2209C14.7045 26.1591 16.5833 26 18 26C19.4167 26 21.2955 26.1591 22.4874 25.2209C23.3109 24.5728 24 23.1327 24 19.5C24 16.4375 23.3439 12.4286 22.1724 9.21035C21.5652 7.5426 20.2599 4 18 4C15.7401 4 14.4348 7.5426 13.8276 9.21035ZM18 2C21.3002 2 23.1021 5.91771 24.0517 8.52619C25.3055 11.9702 26 16.2112 26 19.5C26 23.2185 25.3303 25.5285 23.7244 26.7925C22.127 28.0499 19.9272 28 18 28C16.0728 28 13.873 28.0499 12.2756 26.7925C10.6697 25.5285 10 23.2185 10 19.5C10 16.2112 10.6945 11.9702 11.9483 8.52619C12.8979 5.91771 14.6998 2 18 2Z" fill="#FF760C"/>
<defs>
<filter id="filter0_d" x="9.52515" y="11.0249" width="16.9068" height="20.9749" filterUnits="userSpaceOnUse" color-interpolation-filters="sRGB">
<feFlood flood-opacity="0" result="BackgroundImageFix"/>
<feColorMatrix in="SourceAlpha" type="matrix" values="0 0 0 0 0 0 0 0 0 0 0 0 0 0 0 0 0 0 127 0"/>
<feOffset/>
<feGaussianBlur stdDeviation="2.5"/>
<feColorMatrix type="matrix" values="0 0 0 0 1 0 0 0 0 0.898039 0 0 0 0 0 0 0 0 1 0"/>
<feBlend mode="normal" in2="BackgroundImageFix" result="effect1_dropShadow"/>
<feBlend mode="normal" in="SourceGraphic" in2="effect1_dropShadow" result="shape"/>
</filter>
</defs>
</svg>
